/* XPM */
static char *cbchx_glqye[] = {
/* columns rows colors chars-per-pixel */
"32 32 49 1 ",
"  c #050505",
". c #070708",
"X c #0C0C0C",
"o c #131414",
"O c #171818",
"+ c #1B1B1B",
"@ c #252525",
"# c #272728",
"$ c #272828",
"% c #2A2B2B",
"& c #2F3030",
"* c #333333",
"= c #373738",
"- c #373838",
"; c #3C3C3C",
": c #434343",
"> c #474848",
", c #4A4A4B",
"< c #4F5050",
"1 c #535354",
"2 c #575858",
"3 c #59595A",
"4 c #636363",
"5 c #676868",
"6 c #6A6B6B",
"7 c #6F6F70",
"8 c #737474",
"9 c #777778",
"0 c #7A7A7B",
"q c #838484",
"w c #8B8B8B",
"e c #949595",
"r c #9D9D9D",
"t c #A3A3A4",
"y c #ABABAB",
"u c #B4B5B5",
"i c #BCBCBD",
"p c #BFC0C0",
"a c #C4C4C4",
"s c #CCCCCC",
"d c #CFCFD0",
"f c #D3D4D4",
"g c #D7D8D8",
"h c #DCDCDC",
"j c #DFE0E0",
"k c #E6E6E6",
"l c #E8E8E8",
"z c #F5F5F5",
"x c #FFFFFF",
/* pixels */
"xxxxxxxxxxxxxxxxxxxxxxxxxxxxxxxx",
"xxxxxxxxxxxxxzkhhlzxxxxxxxxxxxxx",
"xxxxxxxxxxky5;%@@%;5ykxxxxxxxxxx",
"xxxxxxxxlw%Xoo+@+++oX*wlxxxxxxxx",
"xxxxxxxi;oo@=,5885,=@OX;ixxxxxxx",
"xxxxxxroO%>qagfaafgaq:@o+rxxxxxx",
"xxxxxtoO%0gaw,-=*-1qss8%+orxxxxx",
"xxxxi+o*ej9=#%%%%%%%=qhe*o+ixxxx",
"xxxl;+%eg3%%%%%%%%%%%%4ge%o-lxxx",
"xxxwX%0k3%%%%%%%%%%%%%@3g8@Xwxxx",
"xxl*o,g8@%%%%%%33%%%%%%%qf:o*kxx",
"xxyX@wi=%%%%%%,kf;%%%%%%-sq@Xyxx",
"xx6X-dq@%%%%%*uafe&%%%%%%qa=X5xx",
"xz;o2g>%%%%%@qh,4k4%%%%%#1g,o;zx",
"xk$O8s=%%%%%>gw%%ts-%%%%%-f5o%kx",
"xh++qi%%%%%%es;%%:fe%%%%%*a9++hx",
"xh++qp%%%%#5k4%%%@8j3#%%%*a9++jx",
"xl%o8s=%%%:fe%%%%%&yp=%%%-d7o#kx",
"xz;o1g,#%%ed:%%%%%%,hw%%#,g<o:zx",
"xx6X-s9##<h0#%%%%%%#9h1%#qs* 6xx",
"xxyX@ei*%iu%%%%%%%%%*uu%=aq@Xyxx",
"xxl%X>g8*9:%%%%%%%%%%>7%8g,X%lxx",
"xxxw.@qg1@%%%%%%%%%%%%@1hq+ wxxx",
"xxxl-X&ts1#%%%%%%%%%##1gr%o;lxxx",
"xxxxiOX=yg8*#%%%%%%#=8hr*++ixxxx",
"xxxxxrXo%qgi8>=%%*>0igq%+Xrxxxxx",
"xxxxxxrOX+,edgsiisffw,+X+exxxxxx",
"xxxxxxxi; X+=38qq91*@X -ixxxxxxx",
"xxxxxxxxlw%X.XXooXo X%wlxxxxxxxx",
"xxxxxxxxxxly5;@++#;5ylxxxxxxxxxx",
"xxxxxxxxxxxxxzkhhkzxxxxxxxxxxxxx",
"xxxxxxxxxxxxxxxxxxxxxxxxxxxxxxxx"
};
