/* XPM */
static char *cb6tr_wbw6t[] = {
/* columns rows colors chars-per-pixel */
"64 64 73 1 ",
"  c #010101",
". c #0E0E0E",
"X c #0F1010",
"o c #121212",
"O c #171718",
"+ c #171818",
"@ c #1B1C1C",
"# c #1F1F20",
"$ c #1F2020",
"% c #242424",
"& c #272728",
"* c #272828",
"= c #2B2B2B",
"- c #2F3030",
"; c #333434",
": c #373738",
"> c #373838",
", c #3B3C3C",
"< c #3F3F40",
"1 c #3F4040",
"2 c #424343",
"3 c #474848",
"4 c #4B4C4C",
"5 c #4F4F50",
"6 c #4F5050",
"7 c #535454",
"8 c #575758",
"9 c #575858",
"0 c #5B5B5B",
"q c #646464",
"w c #6B6B6B",
"e c #6F7070",
"r c #757575",
"t c #777878",
"y c #7A7A7A",
"u c #7F7F80",
"i c #7F8080",
"p c #838484",
"a c #8C8C8D",
"s c #8F9090",
"d c #939393",
"f c #979798",
"g c #979898",
"h c #9B9C9C",
"j c #9F9FA0",
"k c #9FA0A0",
"l c #A3A4A4",
"z c #A6A7A8",
"x c #A7A8A8",
"c c #AAABAB",
"v c #AFAFB0",
"b c #B3B3B4",
"n c #B7B7B8",
"m c #B7B8B8",
"M c #BBBCBC",
"N c #BEBFC0",
"B c #C3C3C3",
"V c #C7C7C8",
"C c #C7C8C9",
"Z c #CBCBCB",
"A c #CFD0D0",
"S c #D5D5D5",
"D c #D7D8D9",
"F c #DBDBDB",
"G c #E4E4E4",
"H c #E7E7E8",
"J c #E7E8E8",
"K c #ECECEC",
"L c #EFF0F0",
"P c #F3F4F4",
"I c #F7F7F8",
"U c #F7F8F8",
"Y c #FFFFFF",
/* pixels */
"YYYYYYYYYYYYYYYYYYYYYYYYYYYYYYYYYYYYYYYYYYYYYYYYYYYYYYYYYYYYYYYY",
"YYYYYYYYYYYYYYYYYYYYYYYYYYYYYYYYYYYYYYYYYYYYYYYYYYYYYYYYYYYYYYYY",
"YYYYYYYYYYYYYYYYYYYYYYYYYYYYYYYYYYYYYYYYYYYYYYYYYYYYYYYYYYYYYYYY",
"YYYYYYYYYYYYYYYYYYYYYYYYYYYYPJFDDGGPYYYYYYYYYYYYYYYYYYYYYYYYYYYY",
"YYYYYYYYYYYYYYYYYYYYYYYISzr7;&%OO#*,8rzSUYYYYYYYYYYYYYYYYYYYYYYY",
"YYYYYYYYYYYYYYYYYYYYYDa3+              +3dDYYYYYYYYYYYYYYYYYYYYY",
"YYYYYYYYYYYYYYYYYYYBq@   . o;oo,%.,o.+    @qBYYYYYYYYYYYYYYYYYYY",
"YYYYYYYYYYYYYYYYYSqo   o,%o3=o2=X2=o1;o;o   oqSYYYYYYYYYYYYYYYYY",
"YYYYYYYYYYYYYYYPd%  o.o3*o2*.2=o1-X,=.,;o>#   @dPYYYYYYYYYYYYYYY",
"YYYYYYYYYYYYYYD7  X;%o3*o374achvMjhd77,.,;X,%   7DYYYYYYYYYYYYYY",
"YYYYYYYYYYYYYB;  o3*o2*=aZGIYYYYYYYYIGbp7.,;o;o  -MYYYYYYYYYYYYY",
"YYYYYYYYYYYYb@  o3*o3qhGYYIGABhhvlbDGYYYFlqo;,o&. %bYYYYYYYYYYYY",
"YYYYYYYYYYYb@  o3*o0bKYYGnq;4;X,;.2,;pzFYYGh7.;,.. @nYYYYYYYYYYY",
"YYYYYYYYYYB%  o3*oyGYUBr0=.,-X1;.,;o,;o8aZYYZw,.;=  %BYYYYYYYYYY",
"YYYYYYYYYF;  o3&+gIYGr&,*o2-X1;X,;.,;.,;.4dGYLy,,o*. ;DYYYYYYYYY",
"YYYYYYYYP0  o3&@lYYV4X2=o1-X<;.1;o,;o,:.::XqVYUk+;,.  0PYYYYYYYY",
"YYYYYYYYd  o3*+xYYb:X2=o1-o1;.,;X,;.,>X>,.;,*vYUh,.;*  dYYYYYYYY",
"YYYYYYYS% o3*+hYYz-o2=o1-X1;.,;X,>X,>.,>.>,X;2fYUy;,oX &SYYYYYYY",
"YYYYYYYw .3*opYYc=o2=o1-o1;X,;X1>X,>.>,.;,X>,X,mYPr.;;  wYYYYYYY",
"YYYYYYVo **oqGYB;o2=o1-X1-.<;X,;.,>.>,X;,X>,X;,*BYV31oo oVYYYYYY",
"YYYYYYw .@o4MYG3X2=o1-X1;.,;X<;#1;X,>X:,X>,X;,X=wGYko=,  wYYYYYY",
"YYYYYD@  o3wPIw.2=o1-o1;X,;X,;,Vm%>>.>,X>,X;,X;1odYG01oX @SYYYYY",
"YYYYYd  o3;xYb@2=o1-X<;.<;o,;+bYYg>.>,X>,X;,X-1X=7SYxo=,  dYYYYY",
"YYYYI3 o2&,JYq2=X2-o1;.,;X,;.pYYUJ2;,X>,X;<X-1o;2.uYG42o  3IYYYY",
"YYYYD+ -*ohYD8=X1-o<;.,;X,>.9JYDHYN2X>,X;1X;1o-1o=0FYso** +DYYYY",
"YYYYx  Oo7DYx*o2-o1-X1;X,;X1NYK0rYYr;,X;,.;,X-2X=2olYb=2o  xYYYY",
"YYYYt  o20PP8.,;X<;.,;X,;X>sYUa.,BYG0.;<.-1o;1X-2o&pYG9o%. rYYYY",
"YYYY7 .3&qYS&,;.1;X,;X,:X>0DYM@>>2HYx,,X;1X-1X=2o=2,GI7%2. 7YYYY",
"YYYP; @*.hYM3;o2;.,;o,;X,,fYK4;,X;gYYp.-,o;1X=2o=3o;SYa2+  ;KYYY",
"YYYG& .o2BYb=o,;X,;X,;X,;6KYf,,X:,%BYS7,o-1X=2o=2o*3MYzo&& &GYYY",
"YYYF+ X2;MYp.,;o,;X,>X,;@MYD8,.>,X;wJYvO-2o=2o=2o*2ohYl&3o +DYYY",
"YYYSo =;+BYp,;.,;X,:X,:.aYUs>X;,X;,ogYPt,o=2o=3o=2o&xYM3o. ODYYY",
"YYYDo oo3AYh=.,;o,;.,:.0KYB2o;,o;<X-6CYD==2o=2o=2o=2fYmO%= oDYYY",
"YYYF@ .,;MYa.2;.,;X,;.2BYJ9X;,.;,X;1XwPYz2o=2o*3o*3odYl%3O +FYYY",
"YYYG* @;obYh,;o,;X,:X>hYUp.;,o;1X;1X-2hYL9*2o*3o*3o&MYv3+  &GYYY",
"YYYP, .o,xYV;X,;.,:o;qGYn+;,X;,X;1X-1.2FYA7o*3o*2o%6AYho$O ,PYYY",
"YYYY0  ,=wYS&,;.,>.,2zYG2;,.;1o;1o-1X-<qPYa*2o*3o*2>GI0$3. 0YYYY",
"YYYYy .%.qPPw;.,:.,;0PYp,,.;,.;,X-1o=2o-mYKeo=2o%3o7IG42o  yYYYY",
"YYYYx  .,3ZYa.,;.,;&VYZ4,o;,X;<o-1X=2o=1>FYM,2o%3O$xYA6+.  cYYYY",
"YYYYD+ +;.kYV3;.>>.sYIp,.;,o;1X-1X-2o=2o&aIYho&2O$0GYhO@+ +SYYYY",
"YYYYI3  .>wLIw.,>.qLYn,.;1o;1o-1o=2o=2o=2$bYG82O%2rYG,@3. 3UYYYY",
"YYYYYd  &;+BYb,,.,VYG7.;,.;,X-2o-2o=2o=2o*qGYmO%3*MYl&3@  dYYYYY",
"YYYYYS# ..,yIIr.;,dHrX;<.;,o-1X=2o=2o*2O*3XtGy%3owIK03@  @DYYYYY",
"YYYYYYw  =>+MYZ4,.,4X;,X;<o-1o=2o=2o*3o*2o%3**2O,FYM4@   qYYYYYY",
"YYYYYYBo ..;qGYc@;,X;,o;,o;<o=2o=2o*2O=2o*3O$3O*NYGw@o. oBYYYYYY",
"YYYYYYYw  %;oaUId,.;<X;,.;,o=2o=2o=2o*2o&3O$3O%zYUa@+%  wYYYYYYY",
"YYYYYYYS%  .;2jYPr;<X;<X-1o=3o=2o=2o=3o%3O$3O%kYYz@#,. %SYYYYYYY",
"YYYYYYYYd  .;X3NYPg+-,X;<o=2o=2o*2o=2o&3o%3O*xUYb%@3o  aYYYYYYYY",
"YYYYYYYYP8   ;,=NYIx7.;,o=2o*2o*2o*2o&3o%2o,MYYb&@3@  8PYYYYYYYY",
"YYYYYYYYYS;  oo;3lYYVw2.=2o=3o*3o*3o&3O$2&qDYIz&@3#  ;SYYYYYYYYY",
"YYYYYYYYYYB@  o,o,aGYIcq3o*2o*2o=3o&2o$8wbPYJa#@3@  @BYYYYYYYYYY",
"YYYYYYYYYYYb+   *,oqBIYIBpw&*2o%1X&4=4lSPYIBw+@3@  +bYYYYYYYYYYY",
"YYYYYYYYYYYYb#  o.=,@yBPYYLZBhpfiyvBSLYYKxw4@@;o  #bYYYYYYYYYYYY",
"YYYYYYYYYYYYYN=   %.=,@wxSPYYYYYYYYYYKDz<&2@o@   -MYYYYYYYYYYYYY",
"YYYYYYYYYYYYYYD8    &o*<o,ercMMAVMBzw08++3@     8DYYYYYYYYYYYYYY",
"YYYYYYYYYYYYYYYPa%    %o&2o*2o;4#=3o@2++,@    %aLYYYYYYYYYYYYYYY",
"YYYYYYYYYYYYYYYYYSqo    ..o,o%3o$3o+,@ .    oqSYYYYYYYYYYYYYYYYY",
"YYYYYYYYYYYYYYYYYYYBw+       .. oX .      @wBYYYYYYYYYYYYYYYYYYY",
"YYYYYYYYYYYYYYYYYYYYYSa3+              +3aSYYYYYYYYYYYYYYYYYYYYY",
"YYYYYYYYYYYYYYYYYYYYYYYISxr5;%+oO@&;7yxDIYYYYYYYYYYYYYYYYYYYYYYY",
"YYYYYYYYYYYYYYYYYYYYYYYYYYYYPGSSDFGPYYYYYYYYYYYYYYYYYYYYYYYYYYYY",
"YYYYYYYYYYYYYYYYYYYYYYYYYYYYYYYYYYYYYYYYYYYYYYYYYYYYYYYYYYYYYYYY",
"YYYYYYYYYYYYYYYYYYYYYYYYYYYYYYYYYYYYYYYYYYYYYYYYYYYYYYYYYYYYYYYY",
"YYYYYYYYYYYYYYYYYYYYYYYYYYYYYYYYYYYYYYYYYYYYYYYYYYYYYYYYYYYYYYYY"
};
