/* XPM */
static char *cb3n1_k4m8h[] = {
/* columns rows colors chars-per-pixel */
"16 16 105 2 ",
"   c #272727",
".  c #272828",
"X  c #282828",
"o  c #282929",
"O  c #292929",
"+  c #292A2A",
"@  c #2A2A2A",
"#  c #2A2A2B",
"$  c #2A2B2B",
"%  c #2B2B2B",
"&  c #2B2C2C",
"*  c #2C2C2C",
"=  c #2D2D2D",
"-  c #2D2D2E",
";  c #2E2F2F",
":  c #2F2F2F",
">  c #2F3030",
",  c #303030",
"<  c #323232",
"1  c #333333",
"2  c #353535",
"3  c #363636",
"4  c #373737",
"5  c #383838",
"6  c #3A3A3B",
"7  c #3C3D3D",
"8  c #3D3D3D",
"9  c #3D3D3E",
"0  c #3F3F3F",
"q  c #3F4040",
"w  c #404040",
"e  c #404141",
"r  c #434343",
"t  c #444444",
"y  c #454545",
"u  c #464646",
"i  c #464747",
"p  c #474848",
"a  c #484949",
"s  c #494A4A",
"d  c #4A4A4A",
"f  c #4D4E4E",
"g  c #515252",
"h  c #525253",
"j  c #525353",
"k  c #535454",
"l  c #545555",
"z  c #575757",
"x  c #575858",
"c  c #585959",
"v  c #5A5B5B",
"b  c #5B5B5B",
"n  c #5B5B5C",
"m  c #5E5E5E",
"M  c #676768",
"N  c #69696A",
"B  c #6D6E6E",
"V  c #6F6F70",
"C  c #707171",
"Z  c #727273",
"A  c #727373",
"S  c #747575",
"D  c #767676",
"F  c #777777",
"G  c #787878",
"H  c #797979",
"J  c #79797A",
"K  c #797A7A",
"L  c #7A7A7A",
"P  c #7A7B7B",
"I  c #7B7C7C",
"U  c #7C7C7C",
"Y  c #7C7C7D",
"T  c #7D7D7E",
"R  c #7D7E7E",
"E  c #7E7E7E",
"W  c #7F7F7F",
"Q  c #848485",
"!  c #848585",
"~  c #858686",
"^  c #868686",
"/  c #868787",
"(  c #878788",
")  c #888889",
"_  c #888989",
"`  c #898989",
"'  c #898A8A",
"]  c #8A8A8A",
"[  c #8A8A8B",
"{  c #8D8D8E",
"}  c #919192",
"|  c #979797",
" . c #989898",
".. c #999999",
"X. c #99999A",
"o. c #9D9E9E",
"O. c #9E9F9F",
"+. c #CFCFCF",
"@. c #D0D0D0",
"#. c #DCDCDC",
"$. c #DDDDDD",
"%. c #EEEEEE",
"&. c #FAFAFA",
"*. c #FEFEFE",
"=. c #FFFFFF",
/* pixels */
"=.=.=.=.=.*.%.$.$.%.*.=.=.=.=.=.",
"=.=.=.*.@.G y 4 5 y H @.*.=.=.=.",
"=.=.&. .1 a L _ ` J p , ..&.=.=.",
"=.=...O Y ) z q w x ' L + X.=.=.",
"=.@.1 T A * X O + X - S K : @.=.",
"=.G d ( & # O V N O # = ] i G =.",
"%.t Y l X o f O.o.u O X x H r %.",
"#.3 [ 8 O > } j c { ; O q _ 2 #.",
"$.3 ] 8 . B W $ % Q M   0 ` 2 $.",
"%.r I g e X.6 @ + 9 X.w l K r %.",
"=.F s ! m v o $ $ o n b ~ i F =.",
"=.+.= E C $ X @ + X $ Z R = +.=.",
"=.=.|   R ^ h 7 7 k / R @  .=.=.",
"=.=.&.| & a U ' ' P i *  .&.=.=.",
"=.=.=.*.+.D w < 1 w D +.*.=.=.=.",
"=.=.=.=.=.*.%.#.#.%.*.=.=.=.=.=."
};
